STARTFONT 2.1
COMMENT 
COMMENT This file has been produced by ttf2bdf written by Subhabrata Biswas
COMMENT 
COMMENT For comments, questions, bug reports, send a mail to
COMMENT                                           subhabrata.biswas@usa.net
COMMENT 
FONT -*-Georgia-Medium-R-Normal--13-100-96-96-c-6--fontspecific
SIZE 10 96 96
FONTBOUNDINGBOX 17 16 -2 -4
STARTPROPERTIES 15
FOUNDRY "Misc"
FAMILY_NAME "Georgia"
WEIGHT_NAME "Medium"
SLANT "R"
SETWIDTH_NAME "Normal"
PIXEL_SIZE 7
POINT_SIZE 100
RESOLUTION_X 96
RESOLUTION_Y 96
SPACING "C"
CHARSET_ENCODING "fontspecific"
FONT_ASCENT 13
FONT_DESCENT 3
DEFAULT_CHAR 31
COPYRIGHT "You may wish to put your copyright here"
ENDPROPERTIES
CHARS 226
STARTCHAR C0030
ENCODING 30
SWIDTH 975 0
DWIDTH 13 0
BBX 10 10 2 0
BITMAP
FFC0
8040
8040
8040
8040
8040
8040
8040
8040
FFC0
ENDCHAR
STARTCHAR C0031
ENCODING 31
SWIDTH 975 0
DWIDTH 13 0
BBX 10 10 2 0
BITMAP
FFC0
8040
8040
8040
8040
8040
8040
8040
8040
FFC0
ENDCHAR
STARTCHAR C0032- 
ENCODING 32
SWIDTH 225 0
DWIDTH 3 0
BBX 1 1 0 -1
BITMAP
00
ENDCHAR
STARTCHAR C0033-!
ENCODING 33
SWIDTH 300 0
DWIDTH 4 0
BBX 1 10 1 0
BITMAP
80
80
80
80
80
80
80
00
80
80
ENDCHAR
STARTCHAR C0034-"
ENCODING 34
SWIDTH 300 0
DWIDTH 4 0
BBX 3 4 0 6
BITMAP
A0
A0
A0
A0
ENDCHAR
STARTCHAR C0035-#
ENCODING 35
SWIDTH 675 0
DWIDTH 9 0
BBX 7 10 1 0
BITMAP
14
14
14
FE
28
28
FE
50
50
50
ENDCHAR
STARTCHAR C0036-$
ENCODING 36
SWIDTH 675 0
DWIDTH 9 0
BBX 7 13 1 -2
BITMAP
10
10
7C
92
90
90
7C
12
12
92
7C
10
10
ENDCHAR
STARTCHAR C0037-%
ENCODING 37
SWIDTH 750 0
DWIDTH 10 0
BBX 8 10 1 0
BITMAP
60
91
92
94
68
16
29
49
89
06
ENDCHAR
STARTCHAR C0038-&
ENCODING 38
SWIDTH 675 0
DWIDTH 9 0
BBX 8 10 0 0
BITMAP
70
88
88
90
67
92
8A
84
84
7B
ENDCHAR
STARTCHAR C0039-'
ENCODING 39
SWIDTH 150 0
DWIDTH 2 0
BBX 1 4 0 6
BITMAP
80
80
80
80
ENDCHAR
STARTCHAR C0040-(
ENCODING 40
SWIDTH 375 0
DWIDTH 5 0
BBX 4 12 0 -2
BITMAP
30
40
40
80
80
80
80
80
80
40
40
30
ENDCHAR
STARTCHAR C0041-)
ENCODING 41
SWIDTH 375 0
DWIDTH 5 0
BBX 4 12 0 -2
BITMAP
C0
20
20
10
10
10
10
10
10
20
20
C0
ENDCHAR
STARTCHAR C0042-*
ENCODING 42
SWIDTH 525 0
DWIDTH 7 0
BBX 5 5 1 5
BITMAP
50
20
F8
20
50
ENDCHAR
STARTCHAR C0043-+
ENCODING 43
SWIDTH 675 0
DWIDTH 9 0
BBX 7 7 1 0
BITMAP
10
10
10
FE
10
10
10
ENDCHAR
STARTCHAR C0044-,
ENCODING 44
SWIDTH 300 0
DWIDTH 4 0
BBX 2 5 1 -3
BITMAP
C0
C0
40
40
80
ENDCHAR
STARTCHAR C0045--
ENCODING 45
SWIDTH 375 0
DWIDTH 5 0
BBX 4 1 0 3
BITMAP
F0
ENDCHAR
STARTCHAR C0046-.
ENCODING 46
SWIDTH 300 0
DWIDTH 4 0
BBX 2 2 1 0
BITMAP
C0
C0
ENDCHAR
STARTCHAR C0047-/
ENCODING 47
SWIDTH 525 0
DWIDTH 7 0
BBX 5 15 1 -3
BITMAP
08
08
08
10
10
10
20
20
20
40
40
40
80
80
80
ENDCHAR
STARTCHAR C0048-0
ENCODING 48
SWIDTH 675 0
DWIDTH 9 0
BBX 7 7 1 0
BITMAP
38
44
82
82
82
44
38
ENDCHAR
STARTCHAR C0049-1
ENCODING 49
SWIDTH 525 0
DWIDTH 7 0
BBX 5 7 1 0
BITMAP
20
E0
20
20
20
20
F8
ENDCHAR
STARTCHAR C0050-2
ENCODING 50
SWIDTH 600 0
DWIDTH 8 0
BBX 6 7 1 0
BITMAP
78
84
84
08
30
40
FC
ENDCHAR
STARTCHAR C0051-3
ENCODING 51
SWIDTH 600 0
DWIDTH 8 0
BBX 6 10 1 -3
BITMAP
78
84
84
04
38
04
04
84
84
78
ENDCHAR
STARTCHAR C0052-4
ENCODING 52
SWIDTH 600 0
DWIDTH 8 0
BBX 6 10 1 -3
BITMAP
08
18
28
48
88
88
FC
08
08
08
ENDCHAR
STARTCHAR C0053-5
ENCODING 53
SWIDTH 600 0
DWIDTH 8 0
BBX 6 10 1 -3
BITMAP
FC
80
80
80
F8
04
04
84
84
78
ENDCHAR
STARTCHAR C0054-6
ENCODING 54
SWIDTH 600 0
DWIDTH 8 0
BBX 6 10 1 0
BITMAP
08
10
20
40
78
84
84
84
84
78
ENDCHAR
STARTCHAR C0055-7
ENCODING 55
SWIDTH 675 0
DWIDTH 9 0
BBX 7 10 1 -3
BITMAP
FE
82
84
04
08
08
10
10
20
20
ENDCHAR
STARTCHAR C0056-8
ENCODING 56
SWIDTH 600 0
DWIDTH 8 0
BBX 6 10 1 0
BITMAP
78
84
84
84
78
84
84
84
84
78
ENDCHAR
STARTCHAR C0057-9
ENCODING 57
SWIDTH 600 0
DWIDTH 8 0
BBX 6 10 1 -3
BITMAP
78
84
84
84
84
78
08
10
20
40
ENDCHAR
STARTCHAR C0058-:
ENCODING 58
SWIDTH 300 0
DWIDTH 4 0
BBX 2 7 1 0
BITMAP
C0
C0
00
00
00
C0
C0
ENDCHAR
STARTCHAR C0059-;
ENCODING 59
SWIDTH 300 0
DWIDTH 4 0
BBX 2 10 1 -3
BITMAP
C0
C0
00
00
00
C0
C0
40
40
80
ENDCHAR
STARTCHAR C0060-<
ENCODING 60
SWIDTH 675 0
DWIDTH 9 0
BBX 7 7 1 0
BITMAP
02
0C
70
80
70
0C
02
ENDCHAR
STARTCHAR C0061-=
ENCODING 61
SWIDTH 675 0
DWIDTH 9 0
BBX 7 4 1 2
BITMAP
FE
00
00
FE
ENDCHAR
STARTCHAR C0062->
ENCODING 62
SWIDTH 675 0
DWIDTH 9 0
BBX 7 7 1 0
BITMAP
80
60
1C
02
1C
60
80
ENDCHAR
STARTCHAR C0063-?
ENCODING 63
SWIDTH 450 0
DWIDTH 6 0
BBX 5 10 0 0
BITMAP
70
88
88
08
10
20
20
00
20
20
ENDCHAR
STARTCHAR C0064-@
ENCODING 64
SWIDTH 975 0
DWIDTH 13 0
BBX 11 12 1 -2
BITMAP
0F00
3080
4040
4720
8920
9120
9220
9240
8D80
4000
2040
1F80
ENDCHAR
STARTCHAR C0065-A
ENCODING 65
SWIDTH 750 0
DWIDTH 10 0
BBX 9 10 0 0
BITMAP
0800
0800
1400
1400
2200
2200
3E00
4100
4100
E380
ENDCHAR
STARTCHAR C0066-B
ENCODING 66
SWIDTH 600 0
DWIDTH 8 0
BBX 7 10 0 0
BITMAP
F8
44
44
44
78
44
42
42
42
FC
ENDCHAR
STARTCHAR C0067-C
ENCODING 67
SWIDTH 600 0
DWIDTH 8 0
BBX 7 10 0 0
BITMAP
3E
42
82
80
80
80
80
82
42
3C
ENDCHAR
STARTCHAR C0068-D
ENCODING 68
SWIDTH 675 0
DWIDTH 9 0
BBX 8 10 0 0
BITMAP
FC
42
41
41
41
41
41
41
42
FC
ENDCHAR
STARTCHAR C0069-E
ENCODING 69
SWIDTH 600 0
DWIDTH 8 0
BBX 7 10 0 0
BITMAP
FE
42
40
40
7C
40
40
42
42
FE
ENDCHAR
STARTCHAR C0070-F
ENCODING 70
SWIDTH 600 0
DWIDTH 8 0
BBX 7 10 0 0
BITMAP
FE
42
40
40
7C
40
40
40
40
E0
ENDCHAR
STARTCHAR C0071-G
ENCODING 71
SWIDTH 675 0
DWIDTH 9 0
BBX 8 10 0 0
BITMAP
3E
42
82
80
80
80
87
82
42
3E
ENDCHAR
STARTCHAR C0072-H
ENCODING 72
SWIDTH 750 0
DWIDTH 10 0
BBX 9 10 0 0
BITMAP
E380
4100
4100
4100
7F00
4100
4100
4100
4100
E380
ENDCHAR
STARTCHAR C0073-I
ENCODING 73
SWIDTH 450 0
DWIDTH 6 0
BBX 5 10 0 0
BITMAP
F8
20
20
20
20
20
20
20
20
F8
ENDCHAR
STARTCHAR C0074-J
ENCODING 74
SWIDTH 525 0
DWIDTH 7 0
BBX 6 10 0 0
BITMAP
3C
08
08
08
08
08
88
88
88
70
ENDCHAR
STARTCHAR C0075-K
ENCODING 75
SWIDTH 675 0
DWIDTH 9 0
BBX 9 10 0 0
BITMAP
E700
4200
4400
4800
5000
7000
4800
4400
4200
E380
ENDCHAR
STARTCHAR C0076-L
ENCODING 76
SWIDTH 600 0
DWIDTH 8 0
BBX 7 10 0 0
BITMAP
E0
40
40
40
40
40
40
42
42
FE
ENDCHAR
STARTCHAR C0077-M
ENCODING 77
SWIDTH 900 0
DWIDTH 12 0
BBX 11 10 0 0
BITMAP
E0E0
60C0
5140
5140
5140
4A40
4A40
4440
4440
E0E0
ENDCHAR
STARTCHAR C0078-N
ENCODING 78
SWIDTH 750 0
DWIDTH 10 0
BBX 9 10 0 0
BITMAP
E380
5100
5100
4900
4900
4500
4500
4300
4300
E100
ENDCHAR
STARTCHAR C0079-O
ENCODING 79
SWIDTH 675 0
DWIDTH 9 0
BBX 8 10 0 0
BITMAP
3C
42
81
81
81
81
81
81
42
3C
ENDCHAR
STARTCHAR C0080-P
ENCODING 80
SWIDTH 600 0
DWIDTH 8 0
BBX 7 10 0 0
BITMAP
FC
42
42
42
42
7C
40
40
40
E0
ENDCHAR
STARTCHAR C0081-Q
ENCODING 81
SWIDTH 675 0
DWIDTH 9 0
BBX 8 12 0 -2
BITMAP
3C
42
81
81
81
81
81
81
42
3C
08
07
ENDCHAR
STARTCHAR C0082-R
ENCODING 82
SWIDTH 675 0
DWIDTH 9 0
BBX 9 10 0 0
BITMAP
FC00
4200
4200
4200
4400
7800
4800
4400
4200
E380
ENDCHAR
STARTCHAR C0083-S
ENCODING 83
SWIDTH 525 0
DWIDTH 7 0
BBX 6 10 0 0
BITMAP
7C
84
84
80
60
18
04
84
84
F8
ENDCHAR
STARTCHAR C0084-T
ENCODING 84
SWIDTH 600 0
DWIDTH 8 0
BBX 7 10 0 0
BITMAP
FE
92
92
10
10
10
10
10
10
38
ENDCHAR
STARTCHAR C0085-U
ENCODING 85
SWIDTH 750 0
DWIDTH 10 0
BBX 9 10 0 0
BITMAP
E380
4100
4100
4100
4100
4100
4100
4100
2200
1C00
ENDCHAR
STARTCHAR C0086-V
ENCODING 86
SWIDTH 750 0
DWIDTH 10 0
BBX 9 10 0 0
BITMAP
E380
4100
4100
2200
2200
2200
1400
1400
0800
0800
ENDCHAR
STARTCHAR C0087-W
ENCODING 87
SWIDTH 900 0
DWIDTH 12 0
BBX 11 11 0 -1
BITMAP
E0E0
4440
4440
4440
4A40
4A40
5140
2080
2080
2080
0000
ENDCHAR
STARTCHAR C0088-X
ENCODING 88
SWIDTH 675 0
DWIDTH 9 0
BBX 8 10 0 0
BITMAP
E7
42
24
24
18
18
24
24
42
E7
ENDCHAR
STARTCHAR C0089-Y
ENCODING 89
SWIDTH 750 0
DWIDTH 10 0
BBX 9 10 0 0
BITMAP
E380
4100
2200
2200
1400
1400
0800
0800
0800
3E00
ENDCHAR
STARTCHAR C0090-Z
ENCODING 90
SWIDTH 600 0
DWIDTH 8 0
BBX 7 10 0 0
BITMAP
FE
82
84
08
10
20
40
82
82
FE
ENDCHAR
STARTCHAR C0091-[
ENCODING 91
SWIDTH 375 0
DWIDTH 5 0
BBX 3 12 1 -2
BITMAP
E0
80
80
80
80
80
80
80
80
80
80
E0
ENDCHAR
STARTCHAR C0092-\
ENCODING 92
SWIDTH 525 0
DWIDTH 7 0
BBX 5 15 1 -3
BITMAP
80
80
80
40
40
40
20
20
20
10
10
10
08
08
08
ENDCHAR
STARTCHAR C0093-]
ENCODING 93
SWIDTH 375 0
DWIDTH 5 0
BBX 3 12 0 -2
BITMAP
E0
20
20
20
20
20
20
20
20
20
20
E0
ENDCHAR
STARTCHAR C0094-^
ENCODING 94
SWIDTH 675 0
DWIDTH 9 0
BBX 7 4 1 6
BITMAP
10
28
44
82
ENDCHAR
STARTCHAR C0095-_
ENCODING 95
SWIDTH 600 0
DWIDTH 8 0
BBX 8 1 0 -2
BITMAP
FF
ENDCHAR
STARTCHAR C0096-`
ENCODING 96
SWIDTH 525 0
DWIDTH 7 0
BBX 3 3 2 8
BITMAP
80
40
20
ENDCHAR
STARTCHAR C0097-a
ENCODING 97
SWIDTH 525 0
DWIDTH 7 0
BBX 6 7 0 0
BITMAP
70
08
08
78
88
88
7C
ENDCHAR
STARTCHAR C0098-b
ENCODING 98
SWIDTH 600 0
DWIDTH 8 0
BBX 7 11 0 0
BITMAP
C0
40
40
40
78
44
42
42
42
44
78
ENDCHAR
STARTCHAR C0099-c
ENCODING 99
SWIDTH 525 0
DWIDTH 7 0
BBX 6 7 0 0
BITMAP
38
44
84
80
80
44
38
ENDCHAR
STARTCHAR C0100-d
ENCODING 100
SWIDTH 600 0
DWIDTH 8 0
BBX 7 11 0 0
BITMAP
0C
04
04
04
3C
44
84
84
84
44
3E
ENDCHAR
STARTCHAR C0101-e
ENCODING 101
SWIDTH 525 0
DWIDTH 7 0
BBX 6 7 0 0
BITMAP
38
44
84
FC
80
44
38
ENDCHAR
STARTCHAR C0102-f
ENCODING 102
SWIDTH 300 0
DWIDTH 4 0
BBX 5 11 0 0
BITMAP
38
40
40
40
F0
40
40
40
40
40
E0
ENDCHAR
STARTCHAR C0103-g
ENCODING 103
SWIDTH 525 0
DWIDTH 7 0
BBX 6 10 0 -3
BITMAP
7C
88
88
88
70
40
78
84
84
78
ENDCHAR
STARTCHAR C0104-h
ENCODING 104
SWIDTH 600 0
DWIDTH 8 0
BBX 7 11 0 0
BITMAP
C0
40
40
40
58
64
44
44
44
44
EE
ENDCHAR
STARTCHAR C0105-i
ENCODING 105
SWIDTH 300 0
DWIDTH 4 0
BBX 3 11 0 0
BITMAP
40
40
00
00
40
C0
40
40
40
40
E0
ENDCHAR
STARTCHAR C0106-j
ENCODING 106
SWIDTH 300 0
DWIDTH 4 0
BBX 3 14 -1 -3
BITMAP
20
20
00
00
60
20
20
20
20
20
20
20
20
C0
ENDCHAR
STARTCHAR C0107-k
ENCODING 107
SWIDTH 525 0
DWIDTH 7 0
BBX 7 11 0 0
BITMAP
C0
40
40
40
4C
48
50
60
50
48
EE
ENDCHAR
STARTCHAR C0108-l
ENCODING 108
SWIDTH 300 0
DWIDTH 4 0
BBX 3 11 0 0
BITMAP
C0
40
40
40
40
40
40
40
40
40
E0
ENDCHAR
STARTCHAR C0109-m
ENCODING 109
SWIDTH 900 0
DWIDTH 12 0
BBX 11 7 0 0
BITMAP
D980
6640
4440
4440
4440
4440
EEE0
ENDCHAR
STARTCHAR C0110-n
ENCODING 110
SWIDTH 600 0
DWIDTH 8 0
BBX 7 7 0 0
BITMAP
D8
64
44
44
44
44
EE
ENDCHAR
STARTCHAR C0111-o
ENCODING 111
SWIDTH 600 0
DWIDTH 8 0
BBX 7 7 0 0
BITMAP
38
44
82
82
82
44
38
ENDCHAR
STARTCHAR C0112-p
ENCODING 112
SWIDTH 600 0
DWIDTH 8 0
BBX 7 10 0 -3
BITMAP
F8
44
42
42
42
44
78
40
40
E0
ENDCHAR
STARTCHAR C0113-q
ENCODING 113
SWIDTH 600 0
DWIDTH 8 0
BBX 7 10 0 -3
BITMAP
3C
44
84
84
84
44
3C
04
04
0E
ENDCHAR
STARTCHAR C0114-r
ENCODING 114
SWIDTH 450 0
DWIDTH 6 0
BBX 5 7 0 0
BITMAP
D8
68
40
40
40
40
E0
ENDCHAR
STARTCHAR C0115-s
ENCODING 115
SWIDTH 450 0
DWIDTH 6 0
BBX 5 7 0 0
BITMAP
78
88
80
70
08
88
F0
ENDCHAR
STARTCHAR C0116-t
ENCODING 116
SWIDTH 375 0
DWIDTH 5 0
BBX 4 9 0 0
BITMAP
40
40
F0
40
40
40
40
40
30
ENDCHAR
STARTCHAR C0117-u
ENCODING 117
SWIDTH 600 0
DWIDTH 8 0
BBX 7 7 0 0
BITMAP
CC
44
44
44
44
4C
36
ENDCHAR
STARTCHAR C0118-v
ENCODING 118
SWIDTH 600 0
DWIDTH 8 0
BBX 7 7 0 0
BITMAP
EE
44
44
28
28
10
10
ENDCHAR
STARTCHAR C0119-w
ENCODING 119
SWIDTH 750 0
DWIDTH 10 0
BBX 9 7 0 0
BITMAP
C980
4900
5500
5500
2200
2200
2200
ENDCHAR
STARTCHAR C0120-x
ENCODING 120
SWIDTH 600 0
DWIDTH 8 0
BBX 7 7 0 0
BITMAP
E6
44
28
10
28
44
CE
ENDCHAR
STARTCHAR C0121-y
ENCODING 121
SWIDTH 600 0
DWIDTH 8 0
BBX 7 10 0 -3
BITMAP
EE
44
44
28
28
10
10
10
20
C0
ENDCHAR
STARTCHAR C0122-z
ENCODING 122
SWIDTH 450 0
DWIDTH 6 0
BBX 5 7 0 0
BITMAP
F8
88
10
20
40
88
F8
ENDCHAR
STARTCHAR C0123-{
ENCODING 123
SWIDTH 450 0
DWIDTH 6 0
BBX 5 12 0 -2
BITMAP
18
20
20
20
20
C0
20
20
20
20
20
18
ENDCHAR
STARTCHAR C0124-|
ENCODING 124
SWIDTH 375 0
DWIDTH 5 0
BBX 1 13 2 -3
BITMAP
80
80
80
80
80
80
80
80
80
80
80
80
80
ENDCHAR
STARTCHAR C0125-}
ENCODING 125
SWIDTH 450 0
DWIDTH 6 0
BBX 5 12 0 -2
BITMAP
C0
20
20
20
20
18
20
20
20
20
20
C0
ENDCHAR
STARTCHAR C0126-~
ENCODING 126
SWIDTH 600 0
DWIDTH 8 0
BBX 6 2 1 3
BITMAP
64
98
ENDCHAR
STARTCHAR C0127
ENCODING 127
SWIDTH 975 0
DWIDTH 13 0
BBX 10 10 2 0
BITMAP
FFC0
8040
8040
8040
8040
8040
8040
8040
8040
FFC0
ENDCHAR
STARTCHAR C0128
ENCODING 128
SWIDTH 600 0
DWIDTH 8 0
BBX 7 10 0 0
BITMAP
1E
22
42
40
F0
40
E0
42
22
1C
ENDCHAR
STARTCHAR C0129
ENCODING 129
SWIDTH 975 0
DWIDTH 13 0
BBX 10 10 2 0
BITMAP
FFC0
8040
8040
8040
8040
8040
8040
8040
8040
FFC0
ENDCHAR
STARTCHAR C0130
ENCODING 130
SWIDTH 225 0
DWIDTH 3 0
BBX 2 4 0 -3
BITMAP
C0
40
40
80
ENDCHAR
STARTCHAR C0131
ENCODING 131
SWIDTH 525 0
DWIDTH 7 0
BBX 8 11 -1 -2
BITMAP
03
04
08
08
1E
08
08
08
10
10
E0
ENDCHAR
STARTCHAR C0132
ENCODING 132
SWIDTH 450 0
DWIDTH 6 0
BBX 5 4 0 -3
BITMAP
D8
48
48
90
ENDCHAR
STARTCHAR C0133
ENCODING 133
SWIDTH 825 0
DWIDTH 11 0
BBX 9 2 1 0
BITMAP
8880
8880
ENDCHAR
STARTCHAR C0134
ENCODING 134
SWIDTH 525 0
DWIDTH 7 0
BBX 5 9 1 1
BITMAP
20
20
F8
20
20
20
20
20
20
ENDCHAR
STARTCHAR C0135
ENCODING 135
SWIDTH 525 0
DWIDTH 7 0
BBX 5 9 1 1
BITMAP
20
20
F8
20
20
20
F8
20
20
ENDCHAR
STARTCHAR C0136
ENCODING 136
SWIDTH 525 0
DWIDTH 7 0
BBX 5 3 1 8
BITMAP
20
50
88
ENDCHAR
STARTCHAR C0137
ENCODING 137
SWIDTH 1125 0
DWIDTH 15 0
BBX 13 10 1 0
BITMAP
6000
9100
9200
9400
6800
1630
2948
4948
8948
0630
ENDCHAR
STARTCHAR C0138
ENCODING 138
SWIDTH 525 0
DWIDTH 7 0
BBX 6 13 0 0
BITMAP
48
30
00
7C
84
84
80
60
18
04
84
84
F8
ENDCHAR
STARTCHAR C0139
ENCODING 139
SWIDTH 375 0
DWIDTH 5 0
BBX 3 5 1 1
BITMAP
20
40
80
40
20
ENDCHAR
STARTCHAR C0140
ENCODING 140
SWIDTH 975 0
DWIDTH 13 0
BBX 12 10 0 0
BITMAP
3FF0
4210
8200
8200
83E0
8200
8200
8210
4210
3FF0
ENDCHAR
STARTCHAR C0141
ENCODING 141
SWIDTH 975 0
DWIDTH 13 0
BBX 10 10 2 0
BITMAP
FFC0
8040
8040
8040
8040
8040
8040
8040
8040
FFC0
ENDCHAR
STARTCHAR C0142
ENCODING 142
SWIDTH 600 0
DWIDTH 8 0
BBX 7 13 0 0
BITMAP
24
18
00
FE
82
84
08
10
20
40
82
82
FE
ENDCHAR
STARTCHAR C0143
ENCODING 143
SWIDTH 975 0
DWIDTH 13 0
BBX 10 10 2 0
BITMAP
FFC0
8040
8040
8040
8040
8040
8040
8040
8040
FFC0
ENDCHAR
STARTCHAR C0144
ENCODING 144
SWIDTH 975 0
DWIDTH 13 0
BBX 10 10 2 0
BITMAP
FFC0
8040
8040
8040
8040
8040
8040
8040
8040
FFC0
ENDCHAR
STARTCHAR C0145
ENCODING 145
SWIDTH 225 0
DWIDTH 3 0
BBX 2 4 0 6
BITMAP
40
80
80
C0
ENDCHAR
STARTCHAR C0146
ENCODING 146
SWIDTH 225 0
DWIDTH 3 0
BBX 2 4 0 6
BITMAP
C0
40
40
80
ENDCHAR
STARTCHAR C0147
ENCODING 147
SWIDTH 450 0
DWIDTH 6 0
BBX 5 4 0 6
BITMAP
48
90
90
D8
ENDCHAR
STARTCHAR C0148
ENCODING 148
SWIDTH 450 0
DWIDTH 6 0
BBX 5 4 0 6
BITMAP
D8
48
48
90
ENDCHAR
STARTCHAR C0149
ENCODING 149
SWIDTH 375 0
DWIDTH 5 0
BBX 3 3 1 2
BITMAP
E0
E0
E0
ENDCHAR
STARTCHAR C0150
ENCODING 150
SWIDTH 600 0
DWIDTH 8 0
BBX 6 1 1 3
BITMAP
FC
ENDCHAR
STARTCHAR C0151
ENCODING 151
SWIDTH 825 0
DWIDTH 11 0
BBX 9 1 1 3
BITMAP
FF80
ENDCHAR
STARTCHAR C0152
ENCODING 152
SWIDTH 525 0
DWIDTH 7 0
BBX 6 2 1 8
BITMAP
64
98
ENDCHAR
STARTCHAR C0153
ENCODING 153
SWIDTH 975 0
DWIDTH 13 0
BBX 13 5 0 5
BITMAP
FB18
A9B0
2150
2150
7318
ENDCHAR
STARTCHAR C0154
ENCODING 154
SWIDTH 450 0
DWIDTH 6 0
BBX 5 11 0 0
BITMAP
88
50
20
00
78
88
80
70
08
88
F0
ENDCHAR
STARTCHAR C0155
ENCODING 155
SWIDTH 375 0
DWIDTH 5 0
BBX 3 5 1 1
BITMAP
80
40
20
40
80
ENDCHAR
STARTCHAR C0156
ENCODING 156
SWIDTH 825 0
DWIDTH 11 0
BBX 10 7 0 0
BITMAP
3180
4A40
8440
87C0
8400
4C40
3380
ENDCHAR
STARTCHAR C0157
ENCODING 157
SWIDTH 975 0
DWIDTH 13 0
BBX 10 10 2 0
BITMAP
FFC0
8040
8040
8040
8040
8040
8040
8040
8040
FFC0
ENDCHAR
STARTCHAR C0158
ENCODING 158
SWIDTH 450 0
DWIDTH 6 0
BBX 5 11 0 0
BITMAP
88
50
20
00
F8
88
10
20
40
88
F8
ENDCHAR
STARTCHAR C0159
ENCODING 159
SWIDTH 750 0
DWIDTH 10 0
BBX 9 13 0 0
BITMAP
2200
2200
0000
E380
4100
2200
2200
1400
1400
0800
0800
0800
3E00
ENDCHAR
STARTCHAR C0160
ENCODING 160
SWIDTH 225 0
DWIDTH 3 0
BBX 1 1 0 -1
BITMAP
00
ENDCHAR
STARTCHAR C0161
ENCODING 161
SWIDTH 300 0
DWIDTH 4 0
BBX 1 10 1 0
BITMAP
80
80
00
80
80
80
80
80
80
80
ENDCHAR
STARTCHAR C0162
ENCODING 162
SWIDTH 600 0
DWIDTH 8 0
BBX 6 11 1 -2
BITMAP
10
10
3C
50
90
90
90
50
3C
10
10
ENDCHAR
STARTCHAR C0163
ENCODING 163
SWIDTH 675 0
DWIDTH 9 0
BBX 7 10 1 0
BITMAP
3C
42
42
40
40
F8
40
40
80
FE
ENDCHAR
STARTCHAR C0164
ENCODING 164
SWIDTH 525 0
DWIDTH 7 0
BBX 6 6 0 1
BITMAP
84
78
48
48
78
84
ENDCHAR
STARTCHAR C0165
ENCODING 165
SWIDTH 750 0
DWIDTH 10 0
BBX 9 10 0 0
BITMAP
E380
4100
2200
1400
0800
0800
7F00
0800
0800
1C00
ENDCHAR
STARTCHAR C0166
ENCODING 166
SWIDTH 375 0
DWIDTH 5 0
BBX 1 13 2 -3
BITMAP
80
80
80
80
80
00
00
00
80
80
80
80
80
ENDCHAR
STARTCHAR C0167
ENCODING 167
SWIDTH 450 0
DWIDTH 6 0
BBX 5 11 0 -1
BITMAP
78
80
80
70
88
88
88
70
08
08
F0
ENDCHAR
STARTCHAR C0168
ENCODING 168
SWIDTH 525 0
DWIDTH 7 0
BBX 4 2 1 8
BITMAP
90
90
ENDCHAR
STARTCHAR C0169
ENCODING 169
SWIDTH 900 0
DWIDTH 12 0
BBX 11 11 0 -1
BITMAP
1F00
2080
4040
8F20
9120
9020
9120
8E20
4040
2080
1F00
ENDCHAR
STARTCHAR C0170
ENCODING 170
SWIDTH 525 0
DWIDTH 7 0
BBX 5 6 1 4
BITMAP
70
08
78
88
88
78
ENDCHAR
STARTCHAR C0171
ENCODING 171
SWIDTH 600 0
DWIDTH 8 0
BBX 5 5 1 1
BITMAP
28
50
A0
50
28
ENDCHAR
STARTCHAR C0172
ENCODING 172
SWIDTH 675 0
DWIDTH 9 0
BBX 7 4 1 1
BITMAP
FE
02
02
02
ENDCHAR
STARTCHAR C0173
ENCODING 173
SWIDTH 375 0
DWIDTH 5 0
BBX 4 1 0 3
BITMAP
F0
ENDCHAR
STARTCHAR C0174
ENCODING 174
SWIDTH 900 0
DWIDTH 12 0
BBX 11 11 0 -1
BITMAP
1F00
2080
4040
9E20
8920
8E20
8A20
9DA0
4040
2080
1F00
ENDCHAR
STARTCHAR C0175
ENCODING 175
SWIDTH 600 0
DWIDTH 8 0
BBX 8 1 0 10
BITMAP
FF
ENDCHAR
STARTCHAR C0176
ENCODING 176
SWIDTH 375 0
DWIDTH 5 0
BBX 4 4 0 6
BITMAP
60
90
90
60
ENDCHAR
STARTCHAR C0177
ENCODING 177
SWIDTH 675 0
DWIDTH 9 0
BBX 7 7 1 0
BITMAP
10
10
10
FE
10
10
FE
ENDCHAR
STARTCHAR C0178
ENCODING 178
SWIDTH 525 0
DWIDTH 7 0
BBX 4 6 1 4
BITMAP
60
90
10
20
40
F0
ENDCHAR
STARTCHAR C0179
ENCODING 179
SWIDTH 525 0
DWIDTH 7 0
BBX 5 6 1 4
BITMAP
70
88
30
08
88
70
ENDCHAR
STARTCHAR C0180
ENCODING 180
SWIDTH 525 0
DWIDTH 7 0
BBX 3 3 2 8
BITMAP
20
40
80
ENDCHAR
STARTCHAR C0181
ENCODING 181
SWIDTH 600 0
DWIDTH 8 0
BBX 6 10 1 -3
BITMAP
88
88
88
88
88
88
F4
80
80
80
ENDCHAR
STARTCHAR C0182
ENCODING 182
SWIDTH 525 0
DWIDTH 7 0
BBX 7 11 0 -1
BITMAP
7E
F4
F4
F4
74
14
14
14
14
14
14
ENDCHAR
STARTCHAR C0183
ENCODING 183
SWIDTH 300 0
DWIDTH 4 0
BBX 2 2 1 3
BITMAP
C0
C0
ENDCHAR
STARTCHAR C0184
ENCODING 184
SWIDTH 525 0
DWIDTH 7 0
BBX 3 3 2 -3
BITMAP
20
20
C0
ENDCHAR
STARTCHAR C0185
ENCODING 185
SWIDTH 525 0
DWIDTH 7 0
BBX 3 6 2 4
BITMAP
40
C0
40
40
40
E0
ENDCHAR
STARTCHAR C0186
ENCODING 186
SWIDTH 525 0
DWIDTH 7 0
BBX 5 6 1 4
BITMAP
70
88
88
88
88
70
ENDCHAR
STARTCHAR C0187
ENCODING 187
SWIDTH 600 0
DWIDTH 8 0
BBX 5 5 1 1
BITMAP
A0
50
28
50
A0
ENDCHAR
STARTCHAR C0188
ENCODING 188
SWIDTH 1050 0
DWIDTH 14 0
BBX 12 10 1 0
BITMAP
4080
C100
4100
4200
4220
E460
04A0
0920
09F0
1020
ENDCHAR
STARTCHAR C0189
ENCODING 189
SWIDTH 1050 0
DWIDTH 14 0
BBX 11 10 1 0
BITMAP
4100
C200
4200
4400
44C0
E920
0820
1040
1080
21E0
ENDCHAR
STARTCHAR C0190
ENCODING 190
SWIDTH 1050 0
DWIDTH 14 0
BBX 12 10 1 0
BITMAP
7080
8900
3100
0A00
8A20
7460
04A0
0920
09F0
1020
ENDCHAR
STARTCHAR C0191
ENCODING 191
SWIDTH 450 0
DWIDTH 6 0
BBX 5 10 0 0
BITMAP
20
20
00
20
20
40
80
88
88
70
ENDCHAR
STARTCHAR C0192
ENCODING 192
SWIDTH 750 0
DWIDTH 10 0
BBX 9 13 0 0
BITMAP
1000
0800
0000
0800
0800
1400
1400
2200
2200
3E00
4100
4100
E380
ENDCHAR
STARTCHAR C0193
ENCODING 193
SWIDTH 750 0
DWIDTH 10 0
BBX 9 13 0 0
BITMAP
0400
0800
0000
0800
0800
1400
1400
2200
2200
3E00
4100
4100
E380
ENDCHAR
STARTCHAR C0194
ENCODING 194
SWIDTH 750 0
DWIDTH 10 0
BBX 9 13 0 0
BITMAP
0C00
1200
0000
0800
0800
1400
1400
2200
2200
3E00
4100
4100
E380
ENDCHAR
STARTCHAR C0195
ENCODING 195
SWIDTH 750 0
DWIDTH 10 0
BBX 9 13 0 0
BITMAP
1900
2600
0000
0800
0800
1400
1400
2200
2200
3E00
4100
4100
E380
ENDCHAR
STARTCHAR C0196
ENCODING 196
SWIDTH 750 0
DWIDTH 10 0
BBX 9 13 0 0
BITMAP
2200
2200
0000
0800
0800
1400
1400
2200
2200
3E00
4100
4100
E380
ENDCHAR
STARTCHAR C0197
ENCODING 197
SWIDTH 750 0
DWIDTH 10 0
BBX 9 13 0 0
BITMAP
1C00
2200
2200
1C00
0800
1400
1400
2200
2200
3E00
4100
4100
E380
ENDCHAR
STARTCHAR C0198
ENCODING 198
SWIDTH 1050 0
DWIDTH 14 0
BBX 13 10 0 0
BITMAP
1FF8
0908
0900
1100
11F0
3F00
2100
4108
4108
E3F8
ENDCHAR
STARTCHAR C0199
ENCODING 199
SWIDTH 600 0
DWIDTH 8 0
BBX 7 13 0 -3
BITMAP
3E
42
82
80
80
80
80
82
42
3C
08
08
30
ENDCHAR
STARTCHAR C0200
ENCODING 200
SWIDTH 600 0
DWIDTH 8 0
BBX 7 13 0 0
BITMAP
20
10
00
FE
42
40
40
7C
40
40
42
42
FE
ENDCHAR
STARTCHAR C0201
ENCODING 201
SWIDTH 600 0
DWIDTH 8 0
BBX 7 13 0 0
BITMAP
08
10
00
FE
42
40
40
7C
40
40
42
42
FE
ENDCHAR
STARTCHAR C0202
ENCODING 202
SWIDTH 600 0
DWIDTH 8 0
BBX 7 13 0 0
BITMAP
18
24
00
FE
42
40
40
7C
40
40
42
42
FE
ENDCHAR
STARTCHAR C0203
ENCODING 203
SWIDTH 600 0
DWIDTH 8 0
BBX 7 13 0 0
BITMAP
24
24
00
FE
42
40
40
7C
40
40
42
42
FE
ENDCHAR
STARTCHAR C0204
ENCODING 204
SWIDTH 450 0
DWIDTH 6 0
BBX 5 13 0 0
BITMAP
40
20
00
F8
20
20
20
20
20
20
20
20
F8
ENDCHAR
STARTCHAR C0205
ENCODING 205
SWIDTH 450 0
DWIDTH 6 0
BBX 5 13 0 0
BITMAP
10
20
00
F8
20
20
20
20
20
20
20
20
F8
ENDCHAR
STARTCHAR C0206
ENCODING 206
SWIDTH 450 0
DWIDTH 6 0
BBX 5 13 0 0
BITMAP
20
50
00
F8
20
20
20
20
20
20
20
20
F8
ENDCHAR
STARTCHAR C0207
ENCODING 207
SWIDTH 450 0
DWIDTH 6 0
BBX 5 13 0 0
BITMAP
88
88
00
F8
20
20
20
20
20
20
20
20
F8
ENDCHAR
STARTCHAR C0208
ENCODING 208
SWIDTH 675 0
DWIDTH 9 0
BBX 8 10 0 0
BITMAP
FC
42
41
41
F1
41
41
41
42
FC
ENDCHAR
STARTCHAR C0209
ENCODING 209
SWIDTH 750 0
DWIDTH 10 0
BBX 9 13 0 0
BITMAP
1900
2600
0000
E380
5100
5100
4900
4900
4500
4500
4300
4300
E100
ENDCHAR
STARTCHAR C0210
ENCODING 210
SWIDTH 675 0
DWIDTH 9 0
BBX 8 13 0 0
BITMAP
10
08
00
3C
42
81
81
81
81
81
81
42
3C
ENDCHAR
STARTCHAR C0211
ENCODING 211
SWIDTH 675 0
DWIDTH 9 0
BBX 8 13 0 0
BITMAP
08
10
00
3C
42
81
81
81
81
81
81
42
3C
ENDCHAR
STARTCHAR C0212
ENCODING 212
SWIDTH 675 0
DWIDTH 9 0
BBX 8 13 0 0
BITMAP
18
24
00
3C
42
81
81
81
81
81
81
42
3C
ENDCHAR
STARTCHAR C0213
ENCODING 213
SWIDTH 675 0
DWIDTH 9 0
BBX 8 13 0 0
BITMAP
19
26
00
3C
42
81
81
81
81
81
81
42
3C
ENDCHAR
STARTCHAR C0214
ENCODING 214
SWIDTH 675 0
DWIDTH 9 0
BBX 8 13 0 0
BITMAP
24
24
00
3C
42
81
81
81
81
81
81
42
3C
ENDCHAR
STARTCHAR C0215
ENCODING 215
SWIDTH 675 0
DWIDTH 9 0
BBX 5 5 2 1
BITMAP
88
50
20
50
88
ENDCHAR
STARTCHAR C0216
ENCODING 216
SWIDTH 675 0
DWIDTH 9 0
BBX 8 11 0 -1
BITMAP
3D
42
85
85
89
91
A1
A1
42
BC
00
ENDCHAR
STARTCHAR C0217
ENCODING 217
SWIDTH 750 0
DWIDTH 10 0
BBX 9 13 0 0
BITMAP
1000
0800
0000
E380
4100
4100
4100
4100
4100
4100
4100
2200
1C00
ENDCHAR
STARTCHAR C0218
ENCODING 218
SWIDTH 750 0
DWIDTH 10 0
BBX 9 13 0 0
BITMAP
0400
0800
0000
E380
4100
4100
4100
4100
4100
4100
4100
2200
1C00
ENDCHAR
STARTCHAR C0219
ENCODING 219
SWIDTH 750 0
DWIDTH 10 0
BBX 9 13 0 0
BITMAP
0800
1400
0000
E380
4100
4100
4100
4100
4100
4100
4100
2200
1C00
ENDCHAR
STARTCHAR C0220
ENCODING 220
SWIDTH 750 0
DWIDTH 10 0
BBX 9 13 0 0
BITMAP
2200
2200
0000
E380
4100
4100
4100
4100
4100
4100
4100
2200
1C00
ENDCHAR
STARTCHAR C0221
ENCODING 221
SWIDTH 750 0
DWIDTH 10 0
BBX 9 13 0 0
BITMAP
0400
0800
0000
E380
4100
2200
2200
1400
1400
0800
0800
0800
3E00
ENDCHAR
STARTCHAR C0222
ENCODING 222
SWIDTH 600 0
DWIDTH 8 0
BBX 7 10 0 0
BITMAP
E0
40
78
44
42
42
44
78
40
E0
ENDCHAR
STARTCHAR C0223
ENCODING 223
SWIDTH 525 0
DWIDTH 7 0
BBX 6 11 0 0
BITMAP
38
44
44
44
58
44
44
44
44
44
D8
ENDCHAR
STARTCHAR C0224
ENCODING 224
SWIDTH 525 0
DWIDTH 7 0
BBX 6 11 0 0
BITMAP
40
20
10
00
70
08
08
78
88
88
7C
ENDCHAR
STARTCHAR C0225
ENCODING 225
SWIDTH 525 0
DWIDTH 7 0
BBX 6 11 0 0
BITMAP
10
20
40
00
70
08
08
78
88
88
7C
ENDCHAR
STARTCHAR C0226
ENCODING 226
SWIDTH 525 0
DWIDTH 7 0
BBX 6 11 0 0
BITMAP
20
50
88
00
70
08
08
78
88
88
7C
ENDCHAR
STARTCHAR C0227
ENCODING 227
SWIDTH 525 0
DWIDTH 7 0
BBX 6 10 0 0
BITMAP
64
98
00
70
08
08
78
88
88
7C
ENDCHAR
STARTCHAR C0228
ENCODING 228
SWIDTH 525 0
DWIDTH 7 0
BBX 6 10 0 0
BITMAP
48
48
00
70
08
08
78
88
88
7C
ENDCHAR
STARTCHAR C0229
ENCODING 229
SWIDTH 525 0
DWIDTH 7 0
BBX 6 11 0 0
BITMAP
20
50
20
00
70
08
08
78
88
88
7C
ENDCHAR
STARTCHAR C0230
ENCODING 230
SWIDTH 750 0
DWIDTH 10 0
BBX 9 7 0 0
BITMAP
7700
0880
0880
7F80
8800
8880
7700
ENDCHAR
STARTCHAR C0231
ENCODING 231
SWIDTH 525 0
DWIDTH 7 0
BBX 6 10 0 -3
BITMAP
38
44
84
80
80
44
38
10
10
60
ENDCHAR
STARTCHAR C0232
ENCODING 232
SWIDTH 525 0
DWIDTH 7 0
BBX 6 11 0 0
BITMAP
40
20
10
00
38
44
84
FC
80
44
38
ENDCHAR
STARTCHAR C0233
ENCODING 233
SWIDTH 525 0
DWIDTH 7 0
BBX 6 11 0 0
BITMAP
08
10
20
00
38
44
84
FC
80
44
38
ENDCHAR
STARTCHAR C0234
ENCODING 234
SWIDTH 525 0
DWIDTH 7 0
BBX 6 11 0 0
BITMAP
10
28
44
00
38
44
84
FC
80
44
38
ENDCHAR
STARTCHAR C0235
ENCODING 235
SWIDTH 525 0
DWIDTH 7 0
BBX 6 10 0 0
BITMAP
48
48
00
38
44
84
FC
80
44
38
ENDCHAR
STARTCHAR C0236
ENCODING 236
SWIDTH 300 0
DWIDTH 4 0
BBX 3 11 0 0
BITMAP
80
40
20
00
C0
40
40
40
40
40
E0
ENDCHAR
STARTCHAR C0237
ENCODING 237
SWIDTH 300 0
DWIDTH 4 0
BBX 3 11 0 0
BITMAP
20
40
80
00
C0
40
40
40
40
40
E0
ENDCHAR
STARTCHAR C0238
ENCODING 238
SWIDTH 300 0
DWIDTH 4 0
BBX 3 11 0 0
BITMAP
40
A0
00
00
C0
40
40
40
40
40
E0
ENDCHAR
STARTCHAR C0239
ENCODING 239
SWIDTH 300 0
DWIDTH 4 0
BBX 3 11 0 0
BITMAP
A0
A0
00
00
C0
40
40
40
40
40
E0
ENDCHAR
STARTCHAR C0240
ENCODING 240
SWIDTH 600 0
DWIDTH 8 0
BBX 7 11 0 0
BITMAP
14
08
14
02
3A
46
82
82
82
44
38
ENDCHAR
STARTCHAR C0241
ENCODING 241
SWIDTH 600 0
DWIDTH 8 0
BBX 7 10 0 0
BITMAP
64
98
00
D8
64
44
44
44
44
EE
ENDCHAR
STARTCHAR C0242
ENCODING 242
SWIDTH 600 0
DWIDTH 8 0
BBX 7 11 0 0
BITMAP
20
10
08
00
38
44
82
82
82
44
38
ENDCHAR
STARTCHAR C0243
ENCODING 243
SWIDTH 600 0
DWIDTH 8 0
BBX 7 11 0 0
BITMAP
08
10
20
00
38
44
82
82
82
44
38
ENDCHAR
STARTCHAR C0244
ENCODING 244
SWIDTH 600 0
DWIDTH 8 0
BBX 7 11 0 0
BITMAP
10
28
44
00
38
44
82
82
82
44
38
ENDCHAR
STARTCHAR C0245
ENCODING 245
SWIDTH 600 0
DWIDTH 8 0
BBX 7 10 0 0
BITMAP
32
4C
00
38
44
82
82
82
44
38
ENDCHAR
STARTCHAR C0246
ENCODING 246
SWIDTH 600 0
DWIDTH 8 0
BBX 7 10 0 0
BITMAP
44
44
00
38
44
82
82
82
44
38
ENDCHAR
STARTCHAR C0247
ENCODING 247
SWIDTH 675 0
DWIDTH 9 0
BBX 5 7 2 0
BITMAP
20
00
00
F8
00
00
20
ENDCHAR
STARTCHAR C0248
ENCODING 248
SWIDTH 600 0
DWIDTH 8 0
BBX 7 7 0 0
BITMAP
3A
44
8A
92
A2
44
B8
ENDCHAR
STARTCHAR C0249
ENCODING 249
SWIDTH 600 0
DWIDTH 8 0
BBX 7 11 0 0
BITMAP
20
10
08
00
CC
44
44
44
44
4C
36
ENDCHAR
STARTCHAR C0250
ENCODING 250
SWIDTH 600 0
DWIDTH 8 0
BBX 7 11 0 0
BITMAP
08
10
20
00
CC
44
44
44
44
4C
36
ENDCHAR
STARTCHAR C0251
ENCODING 251
SWIDTH 600 0
DWIDTH 8 0
BBX 7 11 0 0
BITMAP
10
28
44
00
CC
44
44
44
44
4C
36
ENDCHAR
STARTCHAR C0252
ENCODING 252
SWIDTH 600 0
DWIDTH 8 0
BBX 7 10 0 0
BITMAP
24
24
00
CC
44
44
44
44
4C
36
ENDCHAR
STARTCHAR C0253
ENCODING 253
SWIDTH 600 0
DWIDTH 8 0
BBX 7 14 0 -3
BITMAP
08
10
20
00
EE
44
44
28
28
10
10
10
20
C0
ENDCHAR
STARTCHAR C0254
ENCODING 254
SWIDTH 600 0
DWIDTH 8 0
BBX 7 14 0 -3
BITMAP
C0
40
40
40
78
44
42
42
42
44
78
40
40
E0
ENDCHAR
STARTCHAR C0255
ENCODING 255
SWIDTH 600 0
DWIDTH 8 0
BBX 7 13 0 -3
BITMAP
44
44
00
EE
44
44
28
28
10
10
10
20
C0
ENDCHAR
ENDFONT

